<svg xmlns="http://www.w3.org/2000/svg" version="1.1" viewBox="22 4 56 92">
 <path d="m46.992 6.6797v20.969h6.0156l-0.003906-20.969c0-0.78906-0.32422-1.5625-0.88672-2.1289-0.5625-0.5625-1.3125-0.87109-2.1133-0.87109-1.6602 0-3.0117 1.3477-3.0117 3z"/>
 <path d="m38.668 33.031v4.2539c3.5117-1.1055 7.3281-1.7344 11.332-1.7344 4 0 7.8164 0.625 11.328 1.7305v-4.25c0-2.1562-1.7539-3.9102-3.9102-3.9102h-14.84c-2.1562 0-3.9102 1.7539-3.9102 3.9102z"/>
 <path d="m79.398 60.047c0-12.695-13.188-23.023-29.398-23.023s-29.398 10.328-29.398 23.023c0 9.9375 18.238 27.781 26.078 34.988 1.8633 1.7109 4.7812 1.7109 6.6445 0 7.8398-7.207 26.074-25.051 26.074-34.988zm-42.621-14.16c-6.4453 3.2109-10.293 8.5078-10.293 14.16 0 0.40625-0.32812 0.73438-0.73438 0.73438s-0.73438-0.32812-0.73438-0.73438c0-6.2266 4.1523-12.012 11.109-15.477 0.36719-0.17969 0.80469-0.03125 0.98438 0.32813 0.17969 0.36719 0.03125 0.80859-0.33203 0.98828zm13.223-2.9805c-2.8711 0-5.6758 0.375-8.3398 1.1172-0.066406 0.019531-0.13281 0.027343-0.19922 0.027343-0.32031 0-0.61719-0.21094-0.70703-0.53906-0.10938-0.39062 0.12109-0.79688 0.51172-0.90625 2.793-0.77734 5.7305-1.1719 8.7344-1.1719 0.40625 0 0.73438 0.32812 0.73438 0.73438 0 0.41016-0.32812 0.73828-0.73438 0.73828z"/>
</svg>
